<?xml version="1.0" standalone="no"?>
<!DOCTYPE svg PUBLIC "-//W3C//DTD SVG 20010904//EN"
 "http://www.w3.org/TR/2001/REC-SVG-20010904/DTD/svg10.dtd">
<svg id="default" version="1.0" xmlns="http://www.w3.org/2000/svg"
 width="40.000000px" height="40.000000px" viewBox="0 0 240.000000 240.000000"
 preserveAspectRatio="xMidYMid meet">
<g transform="translate(0.000000,240.000000) scale(0.100000,-0.100000)"
fill="#000000" stroke="none">
<path d="M1035 2340 c-11 -5 -34 -9 -51 -9 -86 -2 -300 -89 -439 -179 -89 -58
-253 -217 -311 -303 -58 -86 -109 -187 -135 -269 -12 -36 -25 -74 -30 -85 -43
-103 -44 -506 -1 -610 5 -11 19 -49 30 -85 53 -158 147 -303 279 -431 107
-104 195 -166 318 -224 177 -85 291 -110 495 -110 204 0 318 25 495 110 123
58 211 120 318 224 133 129 228 277 278 431 12 36 25 74 30 85 43 97 43 557
-1 610 -5 6 -11 27 -15 48 -4 20 -11 40 -16 43 -5 3 -9 12 -9 21 0 21 -67 157
-103 208 -15 22 -38 56 -51 75 -37 56 -205 211 -281 261 -135 89 -300 157
-435 181 -76 13 -341 20 -365 8z m377 -123 c325 -83 578 -283 721 -572 75
-152 102 -273 102 -455 0 -223 -45 -373 -167 -567 -41 -65 -60 -76 -77 -45 -5
9 -10 132 -10 272 -2 240 -10 350 -30 402 -5 13 -17 42 -26 65 -22 53 -14 97
25 143 51 59 63 95 58 170 -7 90 -40 140 -119 182 -61 31 -161 22 -220 -20
-85 -61 -101 -65 -166 -41 -225 83 -419 84 -617 3 -64 -27 -64 -27 -99 -8 -19
11 -54 32 -77 49 -59 41 -159 48 -222 15 -83 -43 -118 -102 -118 -197 0 -63
23 -118 66 -162 39 -38 40 -65 6 -170 -42 -133 -42 -136 -43 -427 -1 -311 -10
-341 -74 -251 -75 105 -129 232 -166 387 -18 73 -18 318 -1 390 51 211 142
377 287 524 109 112 207 183 331 241 152 71 273 96 444 90 74 -2 160 -11 192
-18z m-771 -514 c43 -25 45 -47 9 -92 -31 -38 -31 -40 -16 -70 15 -28 27 -35
62 -34 6 0 40 23 75 50 245 191 590 192 834 3 33 -25 65 -49 72 -53 18 -11 57
8 72 37 13 24 12 29 -17 65 -18 22 -32 44 -32 50 0 5 14 21 31 35 43 36 88 35
133 -4 65 -58 58 -97 -39 -200 -36 -38 -65 -73 -65 -77 0 -5 18 -43 39 -86 71
-142 76 -176 76 -568 0 -393 7 -359 -89 -423 -291 -193 -616 -236 -941 -127
-72 24 -238 109 -255 130 -3 3 -22 19 -42 34 l-38 28 0 352 c0 395 5 433 75
573 19 40 35 77 35 83 0 7 -29 43 -65 81 -97 104 -105 144 -37 200 42 34 80
38 123 13z"/>
<path d="M883 1463 c-22 -8 -16 -61 7 -68 39 -12 66 35 38 63 -13 13 -24 14
-45 5z"/>
<path d="M1450 1455 c-26 -31 13 -82 44 -56 21 17 21 57 0 65 -23 9 -30 8 -44
-9z"/>
<path d="M1125 1430 c-70 -8 -100 -24 -116 -62 -27 -65 21 -128 97 -128 33 0
44 -4 49 -19 16 -53 -32 -66 -115 -30 -39 17 -52 18 -70 9 -54 -29 3 -80 112
-100 149 -29 348 9 356 67 5 36 -27 45 -84 24 -87 -33 -111 -35 -124 -12 -18
35 3 61 49 61 68 0 112 57 95 124 -13 55 -110 80 -249 66z m165 -85 c22 -26 1
-33 -100 -32 -103 0 -121 6 -100 32 9 11 36 15 100 15 64 0 91 -4 100 -15z"/>
</g>
</svg>
